<svg xmlns="http://www.w3.org/2000/svg" width="24" height="24" fill="none" viewBox="0 0 24 24">
  <path fill="#000" d="M4 12v.5c0 .174.081.553.313 1.123.22.54.538 1.16.91 1.777.775 1.281 1.675 2.357 2.307 2.752A1 1 0 0 1 8 19v1h8v-1a1 1 0 0 1 .47-.848c.233-.145.587-.475 1.011-.986a15.51 15.51 0 0 0 1.224-1.726 14.25 14.25 0 0 0 .96-1.814c.25-.587.335-.965.335-1.126V12H4ZM8 2c.998 0 1.947.268 2.676.754.457.304.865.726 1.103 1.246H20a1 1 0 1 1 0 2h-8.22c-.24.52-.647.942-1.104 1.246C9.947 7.732 8.998 8 8 8c-.998 0-1.947-.268-2.676-.754C4.602 6.765 4 5.991 4 5c0-.99.602-1.765 1.324-2.246C6.053 2.268 7.002 2 8 2Zm14 10.5c0 .59-.23 1.283-.497 1.91a16.216 16.216 0 0 1-1.096 2.08 17.502 17.502 0 0 1-1.387 1.952c-.32.388-.669.759-1.02 1.056V20a2 2 0 0 1-2 2H8a2 2 0 0 1-2-2v-.495c-.903-.738-1.804-1.938-2.488-3.07a15.103 15.103 0 0 1-1.05-2.058C2.208 13.752 2 13.077 2 12.5V12a2 2 0 0 1 2-2h16a2 2 0 0 1 2 2v.5ZM6 5c0 .114.07.34.434.582C6.79 5.82 7.34 6 8 6s1.21-.18 1.566-.418C9.93 5.339 10 5.114 10 5c0-.114-.07-.34-.434-.582C9.21 4.18 8.66 4 8 4s-1.21.18-1.566.418C6.07 4.661 6 4.886 6 5Z"/>
</svg>
