<svg width="9" height="10" viewBox="0 0 9 10" fill="none" xmlns="http://www.w3.org/2000/svg">
<path d="M1.5 9V3.93604C1.40987 3.91276 1.32124 3.88343 1.23486 3.84766C0.992212 3.74715 0.771655 3.59978 0.585938 3.41406C0.40022 3.22835 0.252853 3.00779 0.152344 2.76514C0.051878 2.52253 0 2.26259 0 2V0.5C0 0.223858 0.223858 0 0.5 0C0.776142 0 1 0.223858 1 0.5V2C1 2.13132 1.02592 2.26149 1.07617 2.38281C1.12643 2.50409 1.20014 2.61421 1.29297 2.70703C1.35474 2.76881 1.42469 2.8212 1.5 2.86475V0.5C1.5 0.223858 1.72386 0 2 0C2.27614 0 2.5 0.223858 2.5 0.5V2.86475C2.57531 2.8212 2.64526 2.76881 2.70703 2.70703C2.79986 2.61421 2.87357 2.50409 2.92383 2.38281C2.97408 2.26149 3 2.13132 3 2V0.5C3 0.223858 3.22386 0 3.5 0C3.77614 0 4 0.223858 4 0.5V2C4 2.26259 3.94812 2.52253 3.84766 2.76514C3.74715 3.00779 3.59978 3.22835 3.41406 3.41406C3.22835 3.59978 3.00779 3.74715 2.76514 3.84766C2.67876 3.88343 2.59013 3.91276 2.5 3.93604V9C2.5 9.27614 2.27614 9.5 2 9.5C1.72386 9.5 1.5 9.27614 1.5 9ZM8 2.5C8 2.06287 7.86864 1.66307 7.66064 1.38574C7.45472 1.11119 7.21117 1 7 1C6.78883 1 6.54528 1.11119 6.33936 1.38574C6.13136 1.66307 6 2.06287 6 2.5C6 2.93713 6.13136 3.33693 6.33936 3.61426C6.54528 3.88881 6.78883 4 7 4C7.21117 4 7.45472 3.88881 7.66064 3.61426C7.86864 3.33693 8 2.93713 8 2.5ZM9 2.5C9 3.12374 8.81506 3.74154 8.46045 4.21436C8.20954 4.54883 7.87796 4.80096 7.5 4.92139V9C7.5 9.27614 7.27614 9.5 7 9.5C6.72386 9.5 6.5 9.27614 6.5 9V4.92139C6.12204 4.80096 5.79046 4.54883 5.53955 4.21436C5.18494 3.74154 5 3.12374 5 2.5C5 1.87626 5.18494 1.25846 5.53955 0.785645C5.89622 0.310187 6.41561 0 7 0C7.58439 0 8.10378 0.310187 8.46045 0.785645C8.81506 1.25846 9 1.87626 9 2.5Z" fill="#FD4A12"/>
</svg>
