<svg width="12" height="12" viewBox="0 0 12 12" fill="none" xmlns="http://www.w3.org/2000/svg">
<path d="M7 3C7 2.86739 6.94728 2.74025 6.85352 2.64648C6.75975 2.55272 6.63261 2.5 6.5 2.5C6.36739 2.5 6.24025 2.55272 6.14648 2.64648C6.05272 2.74025 6 2.86739 6 3V3.5C6 4.16304 5.73642 4.79874 5.26758 5.26758C4.9184 5.61676 4.4767 5.85189 4 5.94922V8.5C4 8.76522 4.10543 9.0195 4.29297 9.20703C4.48051 9.39457 4.73478 9.5 5 9.5H8.5C8.51415 9.5 8.52838 9.50075 8.54248 9.50195C8.58588 9.50561 8.66161 9.49318 8.75781 9.39697C8.85841 9.29637 8.95754 9.1231 9.01318 8.88574L9.49756 6.46045C9.48817 6.34234 9.4379 6.23087 9.35352 6.14648C9.25975 6.05272 9.13261 6 9 6H7.5C7.22386 6 7 5.77614 7 5.5V3ZM2 9.5H3V6H2V9.5ZM8 5H9C9.39783 5 9.77924 5.15815 10.0605 5.43945C10.3419 5.72076 10.5 6.10217 10.5 6.5C10.5 6.53293 10.4967 6.56586 10.4902 6.59814L9.99023 9.09814C9.98916 9.10349 9.98806 9.10895 9.98682 9.11426C9.89864 9.49032 9.72494 9.84391 9.46484 10.104C9.20869 10.3602 8.86916 10.5203 8.49414 10.5H5C4.56417 10.5 4.14325 10.3574 3.79883 10.0986C3.77054 10.1364 3.74078 10.1733 3.70703 10.207C3.51949 10.3946 3.26522 10.5 3 10.5H2C1.73478 10.5 1.48051 10.3946 1.29297 10.207C1.10543 10.0195 1 9.76522 1 9.5V6C1 5.73478 1.10543 5.4805 1.29297 5.29297C1.4805 5.10543 1.73478 5 2 5H3.5C3.89782 5 4.27924 4.84185 4.56055 4.56055C4.84185 4.27924 5 3.89782 5 3.5V3C5 2.60218 5.15815 2.22076 5.43945 1.93945C5.72076 1.65815 6.10218 1.5 6.5 1.5C6.89782 1.5 7.27924 1.65815 7.56055 1.93945C7.84185 2.22076 8 2.60218 8 3V5Z" fill="#B6B6B6"/>
</svg>
