<svg width="12" height="12" viewBox="0 0 12 12" fill="none" xmlns="http://www.w3.org/2000/svg">
<path d="M6 2.5C8.02775 2.5 9.66887 3.64298 10.9287 5.74268C11.0237 5.90102 11.0237 6.09898 10.9287 6.25732C9.66887 8.35702 8.02775 9.5 6 9.5C3.97224 9.5 2.33112 8.35702 1.07128 6.25732C0.976279 6.09898 0.976279 5.90102 1.07128 5.74268C2.33112 3.64299 3.97224 2.5 6 2.5ZM6 3.5C4.50061 3.5 3.19551 4.27958 2.08886 6C3.19551 7.72042 4.50061 8.5 6 8.5C7.49931 8.5 8.80402 7.72027 9.91064 6C8.80402 4.27973 7.49931 3.5 6 3.5ZM6.5 6C6.5 5.86739 6.44728 5.74025 6.35351 5.64648C6.25974 5.55272 6.1326 5.5 6 5.5C5.86739 5.5 5.74025 5.55272 5.64648 5.64648C5.55271 5.74025 5.5 5.86739 5.5 6C5.5 6.13261 5.55271 6.25975 5.64648 6.35352C5.74025 6.44728 5.86739 6.5 6 6.5C6.1326 6.5 6.25974 6.44728 6.35351 6.35352C6.44728 6.25975 6.5 6.13261 6.5 6ZM7.5 6C7.5 6.39783 7.34185 6.77924 7.06054 7.06055C6.77924 7.34185 6.39782 7.5 6 7.5C5.60217 7.5 5.22075 7.34185 4.93945 7.06055C4.65814 6.77924 4.49999 6.39783 4.49999 6C4.49999 5.60217 4.65814 5.22076 4.93945 4.93945C5.22075 4.65815 5.60217 4.5 6 4.5C6.39782 4.5 6.77924 4.65815 7.06054 4.93945C7.34185 5.22076 7.5 5.60217 7.5 6Z" fill="#B6B6B6"/>
</svg>
