<svg width="28" height="28" viewBox="0 0 28 28" fill="none" xmlns="http://www.w3.org/2000/svg">
<path d="M24.5057 16.4439C24.5056 16.1036 24.3703 15.7776 24.1297 15.537C23.8891 15.2964 23.5631 15.1611 23.2228 15.161C22.8824 15.161 22.5555 15.2963 22.3148 15.537L22.3125 15.5381L15.1666 22.6509V24.5H17.0158L24.1286 17.3542L24.1297 17.3519C24.3704 17.1112 24.5057 16.7843 24.5057 16.4439ZM2.33331 21V19.8334C2.33331 19.189 2.85565 18.6667 3.49998 18.6667H4.66665V7.00004C4.66665 5.76236 5.15866 4.57573 6.03383 3.70056C6.909 2.82539 8.09564 2.33337 9.33331 2.33337H22.1666C22.1889 2.33337 22.2108 2.33557 22.2327 2.33679C22.4388 2.34069 22.6451 2.36004 22.8491 2.40059C23.528 2.53564 24.1518 2.86928 24.6413 3.35876C25.1307 3.84825 25.4644 4.47199 25.5994 5.15092C25.7344 5.82974 25.6649 6.53379 25.4 7.17322C25.1352 7.81243 24.6867 8.35872 24.1115 8.7432C23.5359 9.12779 22.8589 9.33337 22.1666 9.33337H21V9.91671C21 10.561 20.4776 11.0834 19.8333 11.0834C19.189 11.0834 18.6666 10.561 18.6666 9.91671V5.83337C18.6666 5.43353 18.7375 5.03969 18.8694 4.66671H9.33331C8.71448 4.66671 8.12116 4.91272 7.68357 5.3503C7.24599 5.78789 6.99998 6.3812 6.99998 7.00004V18.6667H9.91665C10.561 18.6667 11.0833 19.189 11.0833 19.8334C11.0833 20.4777 10.561 21 9.91665 21H4.66665C4.66665 21.6189 4.91266 22.2122 5.35024 22.6498C5.78782 23.0874 6.38114 23.3334 6.99998 23.3334H9.33331C9.97765 23.3334 10.5 23.8557 10.5 24.5C10.5 25.1444 9.97765 25.6667 9.33331 25.6667H6.99998C5.7623 25.6667 4.57567 25.1747 3.7005 24.2995C2.82533 23.4243 2.33331 22.2377 2.33331 21ZM15.1666 11.6667C15.811 11.6667 16.3333 12.189 16.3333 12.8334C16.3333 13.4777 15.811 14 15.1666 14H10.5C9.85565 14 9.33331 13.4777 9.33331 12.8334C9.33331 12.189 9.85565 11.6667 10.5 11.6667H15.1666ZM15.1666 7.00004C15.811 7.00004 16.3333 7.52238 16.3333 8.16671C16.3333 8.81104 15.811 9.33337 15.1666 9.33337H10.5C9.85565 9.33337 9.33331 8.81104 9.33331 8.16671C9.33331 7.52238 9.85565 7.00004 10.5 7.00004H15.1666ZM26.839 16.4439C26.839 17.4022 26.4576 18.3202 25.7806 18.9982L25.7817 18.9994L18.3271 26.4893C18.1082 26.7093 17.8103 26.8334 17.5 26.8334H14C13.3557 26.8334 12.8333 26.311 12.8333 25.6667V22.1667C12.8333 21.8563 12.9574 21.5585 13.1774 21.3396L20.6673 13.885C21.3454 13.2079 22.2645 12.8277 23.2228 12.8277C24.1819 12.8278 25.1012 13.209 25.7794 13.8872C26.4576 14.5655 26.8389 15.4848 26.839 16.4439ZM21 7.00004H22.1666C22.3974 7.00004 22.6231 6.93113 22.8149 6.80294C23.0066 6.67478 23.1562 6.49299 23.2444 6.27999C23.3327 6.06681 23.3555 5.83182 23.3105 5.60551C23.2655 5.37932 23.1546 5.17159 22.9915 5.0085C22.8284 4.84542 22.6207 4.73455 22.3945 4.68949C22.1682 4.64448 21.9332 4.66727 21.72 4.75557C21.507 4.84384 21.3252 4.99343 21.1971 5.1851C21.0689 5.37696 21 5.60263 21 5.83337V7.00004Z" fill="white"/>
</svg>
