<svg xmlns="http://www.w3.org/2000/svg" width="24" height="24" fill="none" viewBox="0 0 24 24">
  <path fill="#000" d="M6 21V10.872A3.997 3.997 0 0 1 3 7V4a1 1 0 0 1 2 0v3a2.001 2.001 0 0 0 .586 1.414c.123.124.263.228.414.315V4a1 1 0 0 1 2 0v4.73a1.997 1.997 0 0 0 .848-.964C8.948 7.523 9 7.263 9 7V4a1 1 0 0 1 2 0v3a4 4 0 0 1-3 3.872V21a1 1 0 1 1-2 0ZM19 8c0-.874-.263-1.674-.679-2.229C17.91 5.222 17.422 5 17 5c-.422 0-.91.222-1.321.771C15.263 6.326 15 7.126 15 8c0 .874.263 1.674.679 2.229.412.549.899.771 1.321.771.422 0 .91-.222 1.321-.771C18.737 9.674 19 8.873 19 8Zm2 0c0 1.247-.37 2.483-1.08 3.429-.5.669-1.164 1.173-1.92 1.414V21a1 1 0 1 1-2 0v-8.157c-.756-.241-1.42-.745-1.92-1.414C13.37 10.483 13 9.247 13 8c0-1.247.37-2.483 1.08-3.429C14.791 3.621 15.83 3 17 3s2.208.62 2.92 1.571C20.63 5.517 21 6.753 21 8Z"/>
</svg>
