<svg xmlns="http://www.w3.org/2000/svg" width="24" height="24" fill="none" viewBox="0 0 24 24">
  <path fill="#000" d="M14 6a1 1 0 0 0-2 0v1a5 5 0 0 1-4 4.898V17a2 2 0 0 0 2 2h7c.028 0 .057.002.085.004.087.007.238-.018.43-.21.202-.201.4-.548.511-1.023l.97-4.85A.998.998 0 0 0 18 12h-3a1 1 0 0 1-1-1V6ZM4 19h2v-7H4v7Zm12-9h2a3 3 0 0 1 3 3 .987.987 0 0 1-.02.196l-1 5-.006.032c-.177.753-.524 1.46-1.044 1.98-.513.512-1.192.833-1.942.792H10a4 4 0 0 1-2.402-.803c-.057.076-.116.15-.184.217A2 2 0 0 1 6 21H4a2 2 0 0 1-2-2v-7a2 2 0 0 1 2-2h3a3 3 0 0 0 3-3V6a3 3 0 0 1 6 0v4Z"/>
</svg>
