<svg xmlns="http://www.w3.org/2000/svg" width="24" height="24" fill="none" viewBox="0 0 24 24">
  <path fill="#000" d="M2 18.997V8.994l.007-.197a3.005 3.005 0 0 1 1.51-2.405 1 1 0 1 1 .99 1.737 1.005 1.005 0 0 0-.507.87v9.998c0 .548.452 1 1 1h10c.188 0 .266-.043.315-.079.072-.052.174-.16.311-.407a1 1 0 0 1 1.748.972c-.204.368-.478.76-.884 1.054-.427.31-.928.46-1.49.46H5c-1.652 0-3-1.348-3-3Zm18-5.583-2.352-2.35v-.002a.21.21 0 0 0-.068-.044.21.21 0 0 0-.08-.017.21.21 0 0 0-.08.017.21.21 0 0 0-.068.044v.002l-.938.936.293.293a1 1 0 1 1-1.414 1.414l-3.645-3.644a.21.21 0 0 0-.068-.045.21.21 0 0 0-.08-.017.21.21 0 0 0-.08.017.21.21 0 0 0-.068.044v.002L8 13.413v.919A1.667 1.667 0 0 0 9.667 16h8.666A1.665 1.665 0 0 0 20 14.333v-.919ZM17.01 6a1 1 0 1 1 0 2H17a1 1 0 1 1 0-2h.01ZM20 5.667A1.665 1.665 0 0 0 18.333 4H9.667A1.667 1.667 0 0 0 8 5.667v4.918l1.937-1.937a2.21 2.21 0 0 1 3.126 0L15 10.585l.937-.937a2.211 2.211 0 0 1 3.126 0l.937.937V5.667Zm2 8.666A3.667 3.667 0 0 1 18.333 18H9.667A3.667 3.667 0 0 1 6 14.333V5.667A3.667 3.667 0 0 1 9.667 2h8.666A3.667 3.667 0 0 1 22 5.667v8.666Z"/>
</svg>
