<svg width="144" height="74" viewBox="0 0 144 74" fill="none" xmlns="http://www.w3.org/2000/svg">
<path d="M106.86 35.9926C106.86 42.7119 108.292 44.3023 110.28 44.3023C112.307 44.3023 113.818 42.7119 113.818 35.9926C113.818 29.2734 112.307 27.683 110.28 27.683C109.206 27.683 108.332 28.0409 107.656 29.5517C107.02 30.9433 105.429 30.8637 103.441 30.3071C101.851 30.0686 100.738 28.9553 101.215 27.2854C102.407 22.9517 105.827 20.5264 110.32 20.5264C116.84 20.5264 120.935 25.8541 120.935 35.9926C120.935 46.1312 116.84 51.4589 110.32 51.4589C103.799 51.4589 99.7039 46.1312 99.7039 35.9926C99.7039 32.3746 100.499 31.1023 103.242 31.3408C106.383 31.818 106.86 32.8517 106.86 35.9926ZM133.101 54.4011C133.221 56.9456 131.511 57.1842 129.404 57.1842C127.297 57.1842 125.826 57.1444 125.706 54.5998C125.309 45.8529 125.309 29.8698 125.706 21.1228C125.826 18.5782 127.297 18.1409 129.404 18.1409C131.511 18.1409 133.221 18.4589 133.101 21.0035C132.704 29.7505 132.704 45.6541 133.101 54.4011Z" fill="currentColor"/>
<path d="M68.6934 41.0023C68.1765 44.1035 69.091 45.0179 71.7151 45.0975C73.8621 45.177 77.0428 44.8191 79.1103 43.9842C81.0982 43.189 82.0922 43.9047 82.7681 45.7336C83.603 47.9999 83.4042 49.4312 81.7343 50.1866C78.7922 51.5384 72.55 52.2143 68.5344 51.8167C64.9561 51.4589 63.1271 49.9481 62.1729 47.7215C61.2187 45.4553 61.4175 41.5987 62.0934 38.6963C60.7018 38.1396 60.4235 37.0661 60.7018 35.118C61.0994 32.7722 61.7753 32.1758 65.3139 32.6529C67.938 33.0107 71.1187 33.0505 73.8621 32.8119C74.7765 27.5637 73.7428 27.6433 72.3512 27.7625C69.9657 27.9613 66.6259 27.9613 64.0416 27.365C62.0536 26.8878 61.4175 25.8143 61.8151 23.4288C62.2127 21.0035 63.0476 20.4071 65.1548 20.8047C67.5801 21.2421 70.3633 21.3216 73.2259 21.0433C78.991 20.4469 81.6946 21.8385 80.5813 32.6529C81.0187 33.0902 81.297 33.7661 81.456 34.7601C81.8139 37.0264 81.3368 38.1396 78.8319 38.6565C75.7705 39.2926 72.3115 39.5312 68.932 39.4517L68.6934 41.0023ZM92.8669 54.4011C92.9861 56.9456 91.2765 57.1842 89.1693 57.1842C87.062 57.1842 85.591 57.1444 85.4717 54.5998C85.0741 45.8529 85.0741 29.8698 85.4717 21.1228C85.591 18.5782 87.062 18.1409 89.1693 18.1409C91.2765 18.1409 92.9861 18.4589 92.8669 21.0035C92.7476 23.9457 92.6283 27.683 92.5885 31.6987H95.0934C96.9223 31.6987 97.3199 32.9312 97.3199 35.0384C97.3199 37.1457 96.9223 38.3782 95.0934 38.3782H92.5885C92.5885 44.3023 92.6681 50.1866 92.8669 54.4011Z" fill="currentColor"/>
<path d="M42.9152 29.0261C43.9947 29.4007 45.701 29.7533 47.3468 29.5515C49.2145 29.3223 52.1863 30.2576 52.2726 33.4011C52.3351 36.3501 51.4333 38.6572 48.5685 39.5036C46.181 40.2089 42.7534 40.5064 39.9572 37.8806C37.8843 35.934 37.5826 34.5859 37.2209 33.2546C37.7102 32.9606 38.3622 32.5625 39.0109 32.1491C40.8124 34.5373 44.0104 35.8543 46.7785 34.8786C46.9406 34.8227 47.0979 34.7597 47.2541 34.6901C47.3377 34.6523 47.4052 34.5802 47.4416 34.4929C47.4776 34.4056 47.4805 34.3099 47.4484 34.2243C47.4162 34.1387 47.3514 34.068 47.2668 34.0261C47.1821 33.9844 47.0839 33.9743 46.9962 34.0007C46.8528 34.0436 46.7097 34.0791 46.5646 34.1091C44.1054 34.6313 41.6703 33.1521 40.5265 31.1345C40.5776 31.0978 40.6296 31.0645 40.6779 31.029C41.6036 30.3487 42.603 29.3461 42.9152 29.0261ZM30.1203 9.112C33.8615 8.70226 34.8476 9.41938 35.007 11.1247L35.1994 13.9099C36.9626 13.6442 38.622 13.342 40.0353 13.07C44.5582 12.1209 46.725 12.299 47.9894 15.6921C49.447 19.5492 45.2158 25.1562 41.924 28.2985C41.2259 28.7736 39.9042 29.6748 38.9562 30.32C38.2501 30.8005 37.336 31.4225 36.6271 31.905C30.7312 35.0818 25.5674 38.5682 20.3781 39.4987C17.5457 39.9939 16.7233 38.1735 16.1857 35.8249C15.5632 33.1908 15.8884 31.7709 18.0763 31.3054C27.2641 29.3402 32.7625 24.9527 37.3498 21.6794C37.6699 21.443 37.6218 21.0539 37.0441 21.2233C32.5507 22.4153 24.0282 23.7076 18.4699 23.946C15.8415 24.0711 15.3588 21.7649 15.2814 19.5075C15.2234 17.0015 15.8555 15.6425 19.1349 15.5358C20.9772 15.5069 23.4464 15.3026 26.1613 15.0681C25.9692 13.9089 25.7833 12.798 25.755 12.1608C25.6271 10.304 27.0181 9.44334 30.1203 9.112Z" fill="currentColor"/>
<path d="M25.3645 62.8746C28.1262 62.8746 29.9509 62.533 29.9509 60.2881V52.187C31.381 52.2846 32.8605 52.3822 34.3893 52.5286L39.5181 53.0166V60.2881C39.5181 62.5818 41.3428 62.8746 44.1045 62.8746C46.8661 62.8746 48.6908 62.533 48.6908 60.2881V53.3582C50.9593 53.2606 52.784 53.0654 54.6087 52.675C56.9758 52.187 57.0745 50.5277 56.9758 48.3316C56.8279 45.4523 55.743 44.1346 53.0306 44.5738C48.8881 45.2082 45.288 45.0618 39.5674 44.7202C36.7071 44.5738 32.2687 44.1346 29.4084 43.9882C22.3563 43.6466 17.9179 44.1346 15.0083 44.6714C12.1479 45.2082 12 46.9163 12 49.1124C12 51.9917 13.3315 53.3094 16.2905 52.8702C17.8192 52.6262 19.2987 52.4798 20.7782 52.3334V60.2881C20.7782 62.5818 22.6029 62.8746 25.3645 62.8746Z" fill="currentColor"/>
</svg>
