<svg xmlns="http://www.w3.org/2000/svg" width="24" height="24" fill="none" viewBox="0 0 24 24">
  <g clip-path="url(#a)">
    <path fill="#000" d="M25-1v26H-1V-1h26ZM-1 25h26V-1H-1v26ZM10.47 2.552a4 4 0 0 1 3.06 0l2.667 1.104a1 1 0 0 1 .414 1.53 3 3 0 0 0 3.492 4.604l.097-.032a1 1 0 0 1 1.2.59l.048.122.072.184a4 4 0 0 1-.072 2.876.994.994 0 0 1-.079.152c-.488.774-.792 1.334-.945 1.702-.158.382-.364 1.058-.613 2.071a.994.994 0 0 1-.047.144 4 4 0 0 1-2.165 2.164 1.004 1.004 0 0 1-.14.046c-.785.196-1.36.362-1.749.494l-.327.12c-.395.164-.955.469-1.696.943a.938.938 0 0 1-.157.082 4 4 0 0 1-3.06 0 1.004 1.004 0 0 1-.149-.077c-.79-.495-1.35-.8-1.703-.947-.398-.164-1.075-.37-2.071-.613a1.005 1.005 0 0 1-.146-.047 4 4 0 0 1-2.164-2.165 1.006 1.006 0 0 1-.046-.139c-.264-1.05-.47-1.725-.615-2.077-.166-.4-.47-.96-.942-1.695a1.01 1.01 0 0 1-.082-.158 4 4 0 0 1 0-3.06l.038-.082c.014-.027.03-.052.046-.078.465-.722.77-1.282.94-1.693l.117-.317c.13-.383.296-.962.497-1.76l.046-.139a4 4 0 0 1 2.165-2.164l.142-.047c1.026-.254 1.702-.46 2.074-.614l.318-.145c.352-.175.81-.437 1.381-.8l.154-.08ZM12.766 4.4a2 2 0 0 0-1.475-.021c-.653.41-1.222.736-1.7.954l-.208.09c-.505.21-1.274.436-2.266.684A2.01 2.01 0 0 0 6.105 7.12c-.258 1.018-.485 1.789-.681 2.263-.227.546-.584 1.187-1.047 1.913-.17.453-.17.953 0 1.406.406.64.73 1.21.953 1.7l.094.214v.002c.2.485.427 1.255.682 2.262a2 2 0 0 0 1.012 1.013c.72.177 1.327.347 1.808.512l.456.171.002.001c.493.205 1.136.563 1.907 1.043.456.173.958.173 1.414.001.738-.468 1.38-.824 1.912-1.045l.433-.161a24.4 24.4 0 0 1 1.829-.522 1.995 1.995 0 0 0 1.015-1.015c.244-.98.47-1.747.682-2.26v-.002c.21-.507.57-1.15 1.045-1.909a1.99 1.99 0 0 0 .128-.765 4.997 4.997 0 0 1-5.745-4.74L14 6.998c0-.666.133-1.32.387-1.927l-1.621-.67ZM11 17.01V17a1 1 0 1 1 2 0v.01a1 1 0 0 1-2 0Zm4-3V14a1 1 0 1 1 2 0v.01a1 1 0 1 1-2 0Zm-8-1V13a1 1 0 1 1 2 0v.01a1 1 0 1 1-2 0Zm4-1V12a1 1 0 1 1 2 0v.01a1 1 0 1 1-2 0Zm-1-4V8a1 1 0 1 1 2 0v.01a1 1 0 1 1-2 0Z"/>
  </g>
  <defs>
    <clipPath id="a">
      <path fill="#fff" d="M0 0h24v24H0z"/>
    </clipPath>
  </defs>
</svg>
