<svg xmlns="http://www.w3.org/2000/svg" width="21" height="21" fill="none" viewBox="0 0 21 21">
  <path fill="#000" d="M16 19.021v-2h-2a1 1 0 0 1 0-2h2v-2a1 1 0 1 1 2 0v2h2a1 1 0 1 1 0 2h-2v2a1 1 0 0 1-2 0ZM4.19 1.681c3.87-2.495 9.206-2.196 12.702.785h.001c2.226 1.9 3.304 4.547 3.095 7.18a1 1 0 0 1-1.994-.158c.156-1.967-.641-4-2.4-5.5-2.9-2.474-7.459-2.666-10.617-.426-3.114 2.21-3.849 6.043-1.85 9a1 1 0 0 1 .12.875L2.5 15.678l2.99-.635.164-.02a1 1 0 0 1 .48.097 8.868 8.868 0 0 0 3.87.88 1 1 0 0 1 .003 2 10.866 10.866 0 0 1-4.425-.933l-4.375.932A1 1 0 0 1 .05 16.705l1.15-3.452C-1.096 9.403.025 4.625 3.82 1.93l.37-.25Z"/>
</svg>
