<svg xmlns="http://www.w3.org/2000/svg" width="24" height="24" fill="none" viewBox="0 0 24 24">
  <path fill="#000" d="M21.005 14.095a1.1 1.1 0 0 0-1.878-.778l-.002.001L13 19.415V21h1.585l6.097-6.125v-.002c.207-.206.323-.486.323-.778ZM2 18v-1a1 1 0 0 1 1-1h1V6a4 4 0 0 1 4-4h11l.057.003A3 3 0 0 1 19 8h-1v.5a1 1 0 1 1-2 0V5c0-.343.06-.68.174-1H8a2 2 0 0 0-2 2v10h2.5a1 1 0 1 1 0 2H4a2 2 0 0 0 2 2h2a1 1 0 1 1 0 2H6a4 4 0 0 1-4-4Zm11-8a1 1 0 1 1 0 2H9a1 1 0 1 1 0-2h4Zm0-4a1 1 0 1 1 0 2H9a1 1 0 0 1 0-2h4Zm10.005 8.095c0 .821-.327 1.608-.907 2.19l-6.389 6.42A1.001 1.001 0 0 1 15 23h-3a1 1 0 0 1-1-1v-3a1 1 0 0 1 .295-.709l6.42-6.39a3.1 3.1 0 0 1 5.29 2.194ZM18 6h1a1 1 0 1 0-1-1v1Z"/>
</svg>
